<mxfile host="app.diagrams.net" modified="2023-03-16T21:03:19.089Z" agent="5.0 (Windows NT 10.0; Win64; x64) AppleWebKit/537.36 (KHTML, like Gecko) Chrome/111.0.0.0 Safari/537.36" etag="oSfmYw4Tw6XS3zcMgNeY" version="21.0.1" type="github">
  <diagram id="_b0k5pcz21TU8yLiXjsx" name="Página-1">
    <mxGraphModel dx="1600" dy="610" grid="1" gridSize="10" guides="1" tooltips="1" connect="1" arrows="1" fold="1" page="1" pageScale="1" pageWidth="1169" pageHeight="827" math="0" shadow="0">
      <root>
        <mxCell id="0" />
        <mxCell id="1" parent="0" />
        <mxCell id="YyjFwsmyg_Ek1BpVo3EB-13" value="" style="html=1;shadow=0;dashed=0;align=center;verticalAlign=middle;shape=mxgraph.arrows2.bendArrow;dy=15;dx=38;notch=0;arrowHead=55;rounded=1;rotation=90;" parent="1" vertex="1">
          <mxGeometry x="293.89" y="86.46" width="129.31" height="152.9" as="geometry" />
        </mxCell>
        <mxCell id="OXoI7FWKHulJKsjl2YCH-42" value="&lt;b&gt;&lt;font style=&quot;font-size: 18px;&quot;&gt;Validación cruzada &lt;br&gt;K-fold&amp;nbsp;&lt;br&gt;&lt;br&gt;&lt;br&gt;&lt;br&gt;&lt;br&gt;&lt;br&gt;&lt;br&gt;&lt;br&gt;&lt;/font&gt;&lt;/b&gt;" style="rounded=1;whiteSpace=wrap;html=1;absoluteArcSize=1;arcSize=14;strokeWidth=2;fontSize=16;" parent="1" vertex="1">
          <mxGeometry x="347" y="230" width="209" height="200" as="geometry" />
        </mxCell>
        <mxCell id="OXoI7FWKHulJKsjl2YCH-1" value="&lt;font style=&quot;font-size: 20px;&quot;&gt;&lt;b style=&quot;&quot;&gt;Modelo&lt;br&gt;Preentrenado&lt;br&gt;&lt;/b&gt;&lt;/font&gt;" style="rounded=1;whiteSpace=wrap;html=1;absoluteArcSize=1;arcSize=14;strokeWidth=2;fillColor=#dae8fc;strokeColor=#6c8ebf;" parent="1" vertex="1">
          <mxGeometry x="825" y="305.5" width="135" height="100" as="geometry" />
        </mxCell>
        <mxCell id="OXoI7FWKHulJKsjl2YCH-3" value="Etiquetado" style="shape=parallelogram;html=1;strokeWidth=2;perimeter=parallelogramPerimeter;whiteSpace=wrap;rounded=1;arcSize=12;size=0.23;fontSize=20;fontColor=#000000;" parent="1" vertex="1">
          <mxGeometry x="81.5" y="339.93" width="160" height="57.13" as="geometry" />
        </mxCell>
        <mxCell id="OXoI7FWKHulJKsjl2YCH-5" value="Función de costo" style="rounded=1;whiteSpace=wrap;html=1;absoluteArcSize=1;arcSize=14;strokeWidth=2;fontSize=20;fontColor=#000000;" parent="1" vertex="1">
          <mxGeometry x="833.75" y="80" width="119" height="62.5" as="geometry" />
        </mxCell>
        <mxCell id="OXoI7FWKHulJKsjl2YCH-6" value="Método de optimización" style="rounded=1;whiteSpace=wrap;html=1;absoluteArcSize=1;arcSize=14;strokeWidth=2;fontSize=20;fontColor=#000000;" parent="1" vertex="1">
          <mxGeometry x="832" y="202.5" width="126" height="51" as="geometry" />
        </mxCell>
        <mxCell id="OXoI7FWKHulJKsjl2YCH-7" value="" style="html=1;shadow=0;dashed=0;align=center;verticalAlign=middle;shape=mxgraph.arrows2.arrow;dy=0.6;dx=27;direction=south;notch=0;fontSize=20;fontColor=#000000;" parent="1" vertex="1">
          <mxGeometry x="871.25" y="253.5" width="40" height="51" as="geometry" />
        </mxCell>
        <mxCell id="OXoI7FWKHulJKsjl2YCH-8" value="" style="html=1;shadow=0;dashed=0;align=center;verticalAlign=middle;shape=mxgraph.arrows2.arrow;dy=0.6;dx=27;direction=south;notch=0;fontSize=20;fontColor=#000000;" parent="1" vertex="1">
          <mxGeometry x="871.25" y="151.5" width="40" height="51" as="geometry" />
        </mxCell>
        <mxCell id="OXoI7FWKHulJKsjl2YCH-9" value="" style="html=1;shadow=0;dashed=0;align=center;verticalAlign=middle;shape=mxgraph.arrows2.bendArrow;dy=15;dx=38;notch=0;arrowHead=55;rounded=1;fontSize=20;fontColor=#000000;rotation=90;direction=south;dropTarget=0;snapToPoint=0;portConstraint=none;flipH=1;" parent="1" vertex="1">
          <mxGeometry x="923.13" y="125.63" width="219.5" height="146.25" as="geometry" />
        </mxCell>
        <mxCell id="OXoI7FWKHulJKsjl2YCH-13" value="Predicción" style="shape=parallelogram;html=1;strokeWidth=2;perimeter=parallelogramPerimeter;whiteSpace=wrap;rounded=1;arcSize=12;size=0.23;fontSize=20;fontColor=#000000;" parent="1" vertex="1">
          <mxGeometry x="1019" y="318" width="140" height="75" as="geometry" />
        </mxCell>
        <mxCell id="OXoI7FWKHulJKsjl2YCH-15" value="&lt;span style=&quot;font-size: 20px;&quot;&gt;Modelo ajustado&lt;/span&gt;" style="whiteSpace=wrap;html=1;fillColor=#dae8fc;strokeColor=#6c8ebf;rounded=1;arcSize=14;strokeWidth=2;" parent="1" vertex="1">
          <mxGeometry x="830" y="475" width="130" height="60" as="geometry" />
        </mxCell>
        <mxCell id="OXoI7FWKHulJKsjl2YCH-16" value="" style="html=1;shadow=0;dashed=0;align=center;verticalAlign=middle;shape=mxgraph.arrows2.arrow;dy=0.6;dx=27;direction=south;notch=0;fontSize=20;fontColor=#000000;" parent="1" vertex="1">
          <mxGeometry x="875.25" y="411" width="36" height="60" as="geometry" />
        </mxCell>
        <mxCell id="OXoI7FWKHulJKsjl2YCH-17" value="" style="html=1;shadow=0;dashed=0;align=center;verticalAlign=middle;shape=mxgraph.arrows2.arrow;dy=0.62;dx=35;notch=0;fontSize=20;fontColor=#000000;" parent="1" vertex="1">
          <mxGeometry x="600" y="475" width="208" height="55" as="geometry" />
        </mxCell>
        <mxCell id="OXoI7FWKHulJKsjl2YCH-18" value="" style="html=1;shadow=0;dashed=0;align=center;verticalAlign=middle;shape=mxgraph.arrows2.arrow;dy=0.62;dx=35;notch=0;fontSize=20;fontColor=#000000;" parent="1" vertex="1">
          <mxGeometry x="968" y="470" width="51" height="55" as="geometry" />
        </mxCell>
        <mxCell id="OXoI7FWKHulJKsjl2YCH-19" value="Predicción" style="shape=parallelogram;html=1;strokeWidth=2;perimeter=parallelogramPerimeter;whiteSpace=wrap;rounded=1;arcSize=12;size=0.23;fontSize=20;fontColor=#000000;" parent="1" vertex="1">
          <mxGeometry x="1010" y="462.5" width="140" height="70" as="geometry" />
        </mxCell>
        <mxCell id="OXoI7FWKHulJKsjl2YCH-29" value="" style="childLayout=tableLayout;recursiveResize=0;shadow=0;fillColor=none;" parent="1" vertex="1">
          <mxGeometry x="361.5" y="274" width="180" height="140" as="geometry" />
        </mxCell>
        <mxCell id="OXoI7FWKHulJKsjl2YCH-30" value="" style="shape=tableRow;horizontal=0;startSize=0;swimlaneHead=0;swimlaneBody=0;top=0;left=0;bottom=0;right=0;dropTarget=0;collapsible=0;recursiveResize=0;expand=0;fontStyle=0;fillColor=none;strokeColor=inherit;" parent="OXoI7FWKHulJKsjl2YCH-29" vertex="1">
          <mxGeometry width="180" height="47" as="geometry" />
        </mxCell>
        <mxCell id="OXoI7FWKHulJKsjl2YCH-31" value="&lt;font style=&quot;font-size: 16px;&quot;&gt;Test&lt;/font&gt;" style="connectable=0;recursiveResize=0;strokeColor=inherit;fillColor=none;align=center;whiteSpace=wrap;html=1;" parent="OXoI7FWKHulJKsjl2YCH-30" vertex="1">
          <mxGeometry width="60" height="47" as="geometry">
            <mxRectangle width="60" height="47" as="alternateBounds" />
          </mxGeometry>
        </mxCell>
        <mxCell id="OXoI7FWKHulJKsjl2YCH-32" value="&lt;font style=&quot;font-size: 16px;&quot;&gt;Train&lt;/font&gt;" style="connectable=0;recursiveResize=0;strokeColor=inherit;fillColor=none;align=center;whiteSpace=wrap;html=1;" parent="OXoI7FWKHulJKsjl2YCH-30" vertex="1">
          <mxGeometry x="60" width="60" height="47" as="geometry">
            <mxRectangle width="60" height="47" as="alternateBounds" />
          </mxGeometry>
        </mxCell>
        <mxCell id="OXoI7FWKHulJKsjl2YCH-33" value="&lt;font style=&quot;font-size: 16px;&quot;&gt;Train&lt;/font&gt;" style="connectable=0;recursiveResize=0;strokeColor=inherit;fillColor=none;align=center;whiteSpace=wrap;html=1;" parent="OXoI7FWKHulJKsjl2YCH-30" vertex="1">
          <mxGeometry x="120" width="60" height="47" as="geometry">
            <mxRectangle width="60" height="47" as="alternateBounds" />
          </mxGeometry>
        </mxCell>
        <mxCell id="OXoI7FWKHulJKsjl2YCH-34" style="shape=tableRow;horizontal=0;startSize=0;swimlaneHead=0;swimlaneBody=0;top=0;left=0;bottom=0;right=0;dropTarget=0;collapsible=0;recursiveResize=0;expand=0;fontStyle=0;fillColor=none;strokeColor=inherit;" parent="OXoI7FWKHulJKsjl2YCH-29" vertex="1">
          <mxGeometry y="47" width="180" height="46" as="geometry" />
        </mxCell>
        <mxCell id="OXoI7FWKHulJKsjl2YCH-35" value="&lt;font style=&quot;font-size: 16px;&quot;&gt;Train&lt;/font&gt;" style="connectable=0;recursiveResize=0;strokeColor=inherit;fillColor=none;align=center;whiteSpace=wrap;html=1;" parent="OXoI7FWKHulJKsjl2YCH-34" vertex="1">
          <mxGeometry width="60" height="46" as="geometry">
            <mxRectangle width="60" height="46" as="alternateBounds" />
          </mxGeometry>
        </mxCell>
        <mxCell id="OXoI7FWKHulJKsjl2YCH-36" value="&lt;font style=&quot;font-size: 16px;&quot;&gt;Test&lt;/font&gt;" style="connectable=0;recursiveResize=0;strokeColor=inherit;fillColor=none;align=center;whiteSpace=wrap;html=1;" parent="OXoI7FWKHulJKsjl2YCH-34" vertex="1">
          <mxGeometry x="60" width="60" height="46" as="geometry">
            <mxRectangle width="60" height="46" as="alternateBounds" />
          </mxGeometry>
        </mxCell>
        <mxCell id="OXoI7FWKHulJKsjl2YCH-37" value="&lt;font style=&quot;font-size: 16px;&quot;&gt;Train&lt;/font&gt;" style="connectable=0;recursiveResize=0;strokeColor=inherit;fillColor=none;align=center;whiteSpace=wrap;html=1;" parent="OXoI7FWKHulJKsjl2YCH-34" vertex="1">
          <mxGeometry x="120" width="60" height="46" as="geometry">
            <mxRectangle width="60" height="46" as="alternateBounds" />
          </mxGeometry>
        </mxCell>
        <mxCell id="OXoI7FWKHulJKsjl2YCH-38" style="shape=tableRow;horizontal=0;startSize=0;swimlaneHead=0;swimlaneBody=0;top=0;left=0;bottom=0;right=0;dropTarget=0;collapsible=0;recursiveResize=0;expand=0;fontStyle=0;fillColor=none;strokeColor=inherit;" parent="OXoI7FWKHulJKsjl2YCH-29" vertex="1">
          <mxGeometry y="93" width="180" height="47" as="geometry" />
        </mxCell>
        <mxCell id="OXoI7FWKHulJKsjl2YCH-39" value="&lt;font style=&quot;font-size: 16px;&quot;&gt;Test&lt;/font&gt;" style="connectable=0;recursiveResize=0;strokeColor=inherit;fillColor=none;align=center;whiteSpace=wrap;html=1;" parent="OXoI7FWKHulJKsjl2YCH-38" vertex="1">
          <mxGeometry width="60" height="47" as="geometry">
            <mxRectangle width="60" height="47" as="alternateBounds" />
          </mxGeometry>
        </mxCell>
        <mxCell id="OXoI7FWKHulJKsjl2YCH-40" value="&lt;font style=&quot;font-size: 16px;&quot;&gt;Test&lt;/font&gt;" style="connectable=0;recursiveResize=0;strokeColor=inherit;fillColor=none;align=center;whiteSpace=wrap;html=1;" parent="OXoI7FWKHulJKsjl2YCH-38" vertex="1">
          <mxGeometry x="60" width="60" height="47" as="geometry">
            <mxRectangle width="60" height="47" as="alternateBounds" />
          </mxGeometry>
        </mxCell>
        <mxCell id="OXoI7FWKHulJKsjl2YCH-41" value="&lt;font style=&quot;font-size: 16px;&quot;&gt;Train&lt;/font&gt;" style="connectable=0;recursiveResize=0;strokeColor=inherit;fillColor=none;align=center;whiteSpace=wrap;html=1;" parent="OXoI7FWKHulJKsjl2YCH-38" vertex="1">
          <mxGeometry x="120" width="60" height="47" as="geometry">
            <mxRectangle width="60" height="47" as="alternateBounds" />
          </mxGeometry>
        </mxCell>
        <mxCell id="OXoI7FWKHulJKsjl2YCH-45" value="&lt;b&gt;&lt;font style=&quot;font-size: 20px;&quot;&gt;Base de datos&lt;/font&gt;&lt;/b&gt;" style="strokeWidth=2;html=1;shape=mxgraph.flowchart.database;whiteSpace=wrap;fontSize=18;" parent="1" vertex="1">
          <mxGeometry x="57" y="471" width="202" height="98" as="geometry" />
        </mxCell>
        <mxCell id="OXoI7FWKHulJKsjl2YCH-55" value="" style="html=1;shadow=0;dashed=0;align=center;verticalAlign=middle;shape=mxgraph.arrows2.arrow;dy=0.6;dx=40;direction=north;notch=0;fontSize=20;" parent="1" vertex="1">
          <mxGeometry x="128" y="276.5" width="60" height="58" as="geometry" />
        </mxCell>
        <mxCell id="OXoI7FWKHulJKsjl2YCH-57" value="Sentencias y tokens de&amp;nbsp;&lt;br&gt;entrenamiento" style="rounded=1;whiteSpace=wrap;html=1;absoluteArcSize=1;arcSize=14;strokeWidth=2;fontSize=20;" parent="1" vertex="1">
          <mxGeometry x="44.5" y="80" width="234" height="64.5" as="geometry" />
        </mxCell>
        <mxCell id="OXoI7FWKHulJKsjl2YCH-58" value="" style="html=1;shadow=0;dashed=0;align=center;verticalAlign=middle;shape=mxgraph.arrows2.arrow;dy=0.6;dx=27;direction=south;notch=0;fontSize=20;fontColor=#000000;rotation=-180;" parent="1" vertex="1">
          <mxGeometry x="130" y="148.5" width="50" height="48.25" as="geometry" />
        </mxCell>
        <mxCell id="463bOfzC84vnyIvsKa7U-2" value="&lt;font style=&quot;font-size: 20px;&quot;&gt;&lt;b style=&quot;&quot;&gt;Preprocesamiento&lt;/b&gt;&lt;/font&gt;" style="rounded=1;whiteSpace=wrap;html=1;absoluteArcSize=1;arcSize=14;strokeWidth=2;fillColor=#CCCCFF;strokeColor=#9999FF;" parent="1" vertex="1">
          <mxGeometry x="62" y="202.5" width="199" height="67.5" as="geometry" />
        </mxCell>
        <mxCell id="463bOfzC84vnyIvsKa7U-5" value="" style="html=1;shadow=0;dashed=0;align=center;verticalAlign=middle;shape=mxgraph.arrows2.arrow;dy=0.6;dx=40;direction=north;notch=0;fontSize=20;" parent="1" vertex="1">
          <mxGeometry x="135" y="397.06" width="53" height="62.94" as="geometry" />
        </mxCell>
        <mxCell id="FQRkyqGwiRKNuV5WC54C-1" value="&lt;font style=&quot;font-size: 16px;&quot;&gt;Entrenamiento&lt;br&gt;&lt;br&gt;&lt;br&gt;&lt;br&gt;&lt;/font&gt;" style="html=1;shadow=0;dashed=0;align=center;verticalAlign=middle;shape=mxgraph.arrows2.bendArrow;dy=15;dx=38;notch=0;arrowHead=55;rounded=1;fontSize=20;" parent="1" vertex="1">
          <mxGeometry x="480" y="90" width="330" height="130" as="geometry" />
        </mxCell>
        <mxCell id="FQRkyqGwiRKNuV5WC54C-3" value="" style="html=1;shadow=0;dashed=0;align=center;verticalAlign=middle;shape=mxgraph.arrows2.arrow;dy=0.6;dx=40;notch=0;fontSize=16;" parent="1" vertex="1">
          <mxGeometry x="970" y="320" width="59" height="64.65" as="geometry" />
        </mxCell>
        <mxCell id="YyjFwsmyg_Ek1BpVo3EB-2" value="Ajuste de&amp;nbsp;&lt;br&gt;hiperparamentros" style="rounded=1;whiteSpace=wrap;html=1;absoluteArcSize=1;arcSize=14;strokeWidth=2;fontSize=20;fontColor=#000000;" parent="1" vertex="1">
          <mxGeometry x="620" y="368" width="160" height="51" as="geometry" />
        </mxCell>
        <mxCell id="YyjFwsmyg_Ek1BpVo3EB-3" value="&lt;span style=&quot;font-size: 16px;&quot;&gt;Val.&lt;/span&gt;" style="html=1;shadow=0;dashed=0;align=center;verticalAlign=middle;shape=mxgraph.arrows2.arrow;dy=0.6;dx=40;notch=0;fontSize=20;" parent="1" vertex="1">
          <mxGeometry x="560" y="363" width="55" height="59" as="geometry" />
        </mxCell>
        <mxCell id="YyjFwsmyg_Ek1BpVo3EB-4" value="" style="html=1;shadow=0;dashed=0;align=center;verticalAlign=middle;shape=mxgraph.arrows2.arrow;dy=0.62;dx=35;notch=0;fontSize=20;fontColor=#000000;" parent="1" vertex="1">
          <mxGeometry x="780" y="374" width="40" height="36" as="geometry" />
        </mxCell>
        <mxCell id="YyjFwsmyg_Ek1BpVo3EB-5" value="" style="html=1;shadow=0;dashed=0;align=center;verticalAlign=middle;shape=mxgraph.arrows2.bendArrow;dy=15;dx=38;notch=0;arrowHead=55;rounded=1;flipH=1;rotation=-180;" parent="1" vertex="1">
          <mxGeometry x="620" y="133" width="200" height="220" as="geometry" />
        </mxCell>
        <mxCell id="YyjFwsmyg_Ek1BpVo3EB-11" value="Sentencias y tokens de testeo" style="rounded=1;whiteSpace=wrap;html=1;absoluteArcSize=1;arcSize=14;strokeWidth=2;fontSize=20;" parent="1" vertex="1">
          <mxGeometry x="280" y="479" width="310" height="53.5" as="geometry" />
        </mxCell>
        <mxCell id="y2uiBDd0YQ1coXwU63ts-3" value="" style="html=1;shadow=0;dashed=0;align=center;verticalAlign=middle;shape=mxgraph.arrows2.bendArrow;dy=15;dx=38;notch=0;arrowHead=55;rounded=1;rotation=90;" vertex="1" parent="1">
          <mxGeometry x="178.22" y="308.04" width="250.79" height="76.61" as="geometry" />
        </mxCell>
      </root>
    </mxGraphModel>
  </diagram>
</mxfile>
